<?xml version="1.0" encoding="UTF-8"?>
<!DOCTYPE svg PUBLIC "-//W3C//DTD SVG 1.1//EN" "http://www.w3.org/Graphics/SVG/1.1/DTD/svg11.dtd">
<!-- Creator: CorelDRAW -->
<svg xmlns="http://www.w3.org/2000/svg" xml:space="preserve" width="48px" height="47px" style="shape-rendering:geometricPrecision; text-rendering:geometricPrecision; image-rendering:optimizeQuality; fill-rule:evenodd; clip-rule:evenodd"
viewBox="0 0 15.5691 15.1077"
 xmlns:xlink="http://www.w3.org/1999/xlink">
 <defs>
  <style type="text/css">
   <![CDATA[
    .fil0 {fill:#ED2F59}
    .fil1 {fill:#FEFEFE;fill-rule:nonzero}
   ]]>
  </style>
 </defs>
 <g id="Layer_x0020_1">
  <metadata id="CorelCorpID_0Corel-Layer"/>
  <path class="fil0" d="M-0 1.52061c0,4.15369 0,8.30735 0,12.4611 4.01777,1.50851 11.6663,1.49423 15.5691,0l0 -12.4611c-3.92249,-2.10185 -12.3708,-1.95173 -15.5691,0z"/>
  <path class="fil1" d="M10.0226 1.86587l1.17192 0 0 5.11191c0,0.887672 -0.100926,1.59411 -0.302755,2.11725 -0.201852,0.523142 -0.564325,0.947414 -1.08952,1.2749 -0.525199,0.329517 -1.2131,0.492242 -2.06578,0.492242 -0.827953,0 -1.5076,-0.142134 -2.0328,-0.42841 -0.527255,-0.28422 -0.904174,-0.698208 -1.12865,-1.23986 -0.226558,-0.541677 -0.337792,-1.27901 -0.337792,-2.21612l0 -5.11191 1.16986 0 0 5.10572c0,0.768235 0.0720833,1.33462 0.214193,1.69711 0.14211,0.364554 0.389259,0.644636 0.735278,0.842375 0.348076,0.197715 0.774405,0.296584 1.27695,0.296584 0.860886,0 1.47465,-0.195682 1.84126,-0.586998 0.364554,-0.389259 0.547847,-1.13896 0.547847,-2.24907l0 -5.10572z"/>
  <path class="fil1" d="M2.03931 12.9009l0 -1.04585c0,-0.0885854 0.0212136,-0.155407 0.0630908,-0.199963 0.0418772,-0.0445558 0.0970517,-0.0668217 0.165428,-0.0668217 0.071031,0 0.12776,0.0222659 0.169637,0.0668217 0.041925,0.0445558 0.0631147,0.111378 0.0631147,0.199963l0 1.06965c0,0.121494 0.0143258,0.223233 0.0429534,0.30474 0.0281015,0.0815062 0.078445,0.144788 0.151078,0.189846 0.0726573,0.045058 0.173918,0.067324 0.304333,0.067324 0.18028,0 0.307514,-0.0455603 0.382276,-0.137183 0.0747619,-0.0916228 0.111856,-0.230336 0.111856,-0.416117l0 -1.07826c0,-0.0896138 0.0206875,-0.156938 0.0620385,-0.200967 0.0413749,-0.0440535 0.0970278,-0.0658172 0.16648,-0.0658172 0.0689263,0 0.125105,0.0217637 0.168083,0.0658172 0.0429295,0.0440296 0.0646693,0.111354 0.0646693,0.200967l0 1.04585c0,0.170092 -0.0174827,0.311843 -0.0519459,0.425229 -0.0350132,0.113913 -0.100233,0.213619 -0.19671,0.299693 -0.082702,0.0733987 -0.179204,0.12654 -0.288955,0.159951 -0.109751,0.033937 -0.238061,0.0506305 -0.38493,0.0506305 -0.174947,0 -0.325523,-0.0182241 -0.45223,-0.0541701 -0.126206,-0.035946 -0.229045,-0.092125 -0.309092,-0.167557 -0.0795451,-0.0754315 -0.137853,-0.172627 -0.175497,-0.290581 -0.0371179,-0.117931 -0.0556768,-0.259179 -0.0556768,-0.423196z"/>
  <path id="1" class="fil1" d="M5.22204 13.4715l-0.364793 -1.38503 0 1.50095c0,0.083013 -0.0196112,0.145291 -0.0583076,0.186809 -0.0386963,0.0414945 -0.0901161,0.0622537 -0.154283,0.0622537 -0.0625646,0 -0.112932,-0.0207592 -0.152705,-0.0617515 -0.0392225,-0.0410162 -0.0588337,-0.10327 -0.0588337,-0.187311l0 -1.72015c0,-0.0951863 0.0259729,-0.158971 0.0773927,-0.192382 0.0519698,-0.0328847 0.121972,-0.0496021 0.20996,-0.0496021l0.143138 0c0.0859068,0 0.147945,0.00760534 0.187168,0.0222659 0.0386963,0.0146845 0.067324,0.0415184 0.0858829,0.0799995 0.0185589,0.0384572 0.0397965,0.101237 0.0636409,0.188316l0.330832 1.19114 0.330832 -1.19114c0.0238683,-0.0870787 0.045058,-0.149859 0.063617,-0.188316 0.0185589,-0.0384811 0.0471866,-0.065315 0.086409,-0.0799995 0.0387202,-0.0146606 0.101285,-0.0222659 0.187168,-0.0222659l0.142636 0c0.0880114,0 0.15799,0.0167174 0.209936,0.0496021 0.0514436,0.0334109 0.0774166,0.0971952 0.0774166,0.192382l0 1.72015c0,0.083013 -0.0196112,0.145291 -0.0583076,0.186809 -0.0387202,0.0414945 -0.09069,0.0622537 -0.155885,0.0622537 -0.0614884,0 -0.11133,-0.0207592 -0.151126,-0.0622537 -0.0392225,-0.0415184 -0.0588337,-0.103796 -0.0588337,-0.186809l0 -1.50095 -0.364769 1.38503c-0.0238444,0.0901161 -0.0434556,0.155909 -0.0583076,0.19793 -0.0148519,0.0420207 -0.0429534,0.0805018 -0.0832521,0.114917 -0.0402987,0.0349415 -0.0959516,0.0521372 -0.167533,0.0521372 -0.0540744,0 -0.0991564,-0.011121 -0.1368,-0.0334109 -0.0371179,-0.0222659 -0.0662717,-0.0506305 -0.0869352,-0.0850458 -0.0206875,-0.0349176 -0.0371179,-0.0728964 -0.0487889,-0.114917 -0.0116472,-0.0420207 -0.0238444,-0.0860503 -0.0365678,-0.131611z"/>
  <path id="12" class="fil1" d="M9.49215 12.8696l-0.161697 0 0 0.698591c0,0.0916228 -0.0212136,0.159449 -0.0636409,0.203 -0.0424033,0.0435274 -0.0980801,0.0652911 -0.166456,0.0652911 -0.0731834,0 -0.130439,-0.0227682 -0.170737,-0.0683284 -0.0402748,-0.0455603 -0.0604361,-0.11188 -0.0604361,-0.199963l0 -1.67308c0,-0.0946601 0.0222659,-0.163515 0.0667978,-0.206038 0.0445319,-0.0425229 0.116663,-0.0637844 0.215795,-0.0637844l0.750226 0c0.103366,0 0.191903,0.00404183 0.265613,0.0126516 0.0737096,0.00810757 0.139957,0.0253272 0.198815,0.0511327 0.071581,0.0288668 0.134672,0.0698591 0.189822,0.123025 0.0546006,0.0536439 0.0964777,0.115419 0.124579,0.186283 0.0286515,0.0703613 0.0429534,0.145291 0.0429534,0.224764 0,0.161984 -0.0477366,0.291586 -0.143688,0.388279 -0.0959516,0.0971952 -0.241242,0.165524 -0.435824,0.206038 0.0816737,0.0414945 0.160119,0.10327 0.234881,0.18425 0.0742357,0.081004 0.141034,0.167054 0.199365,0.258677 0.0583076,0.0916467 0.103892,0.174157 0.1368,0.247556 0.0323346,0.0739009 0.048765,0.124531 0.048765,0.151868 0,0.0288429 -0.00954254,0.0572074 -0.0286276,0.0855481 -0.0190851,0.0278384 -0.0450819,0.0501283 -0.0784928,0.0668217 -0.0333869,0.0162151 -0.0715571,0.0242988 -0.115037,0.0242988 -0.0514197,0 -0.0954254,-0.0116472 -0.130439,-0.0349176 -0.0349893,-0.0232943 -0.0651954,-0.0526634 -0.0906422,-0.0880832 -0.0254468,-0.0354437 -0.05991,-0.0880832 -0.10339,-0.15744l-0.185039 -0.293619c-0.0662717,-0.107814 -0.125655,-0.189822 -0.177625,-0.246025 -0.052472,-0.056179 -0.105494,-0.0946601 -0.159569,-0.115419 -0.0535483,-0.0207592 -0.121422,-0.031378 -0.203072,-0.031378zm0.264034 -0.91374l-0.425731 0 0 0.597856 0.413008 0c0.110804,0 0.204124,-0.00911205 0.279939,-0.0273362 0.075288,-0.0182241 0.133093,-0.049626 0.172842,-0.0936556 0.0397726,-0.0440535 0.05991,-0.104274 0.05991,-0.181739 0,-0.0602448 -0.0159042,-0.113386 -0.0482389,-0.159449 -0.0318085,-0.0460864 -0.0763643,-0.0805018 -0.13362,-0.10327 -0.0535483,-0.0217876 -0.159569,-0.0324064 -0.318109,-0.0324064z"/>
  <path id="123" class="fil1" d="M12.8901 13.1465c0,0.131611 -0.0355155,0.250067 -0.106546,0.354868 -0.0705526,0.104777 -0.174444,0.186785 -0.311221,0.246025 -0.1368,0.0592164 -0.298497,0.0890877 -0.486191,0.0890877 -0.224812,0 -0.409851,-0.04049 -0.55617,-0.121494 -0.103366,-0.0587141 -0.187694,-0.136179 -0.252363,-0.233876 -0.0646932,-0.0971952 -0.0970278,-0.191855 -0.0970278,-0.28398 0,-0.0531656 0.0196112,-0.0992281 0.0583315,-0.137207 0.0386963,-0.0379549 0.0879875,-0.0571835 0.148424,-0.0571835 0.0488129,0 0.0896138,0.0151868 0.123551,0.0445319 0.0334109,0.0298713 0.0620385,0.0739248 0.0858829,0.132137 0.0291538,0.0693568 0.0604361,0.127067 0.0943731,0.173631 0.0334109,0.0460625 0.0811236,0.0845436 0.142086,0.114917 0.0609862,0.0298713 0.141034,0.045058 0.240716,0.045058 0.136776,0 0.247604,-0.0303735 0.332961,-0.0911205 0.0853567,-0.060747 0.128286,-0.136681 0.128286,-0.227801 0,-0.0718919 -0.0227921,-0.130606 -0.0689263,-0.175664 -0.0461103,-0.045058 -0.10602,-0.0794734 -0.178654,-0.102768 -0.0731834,-0.0237966 -0.170713,-0.0490999 -0.293188,-0.0759338 -0.163299,-0.0364482 -0.300626,-0.0794734 -0.410903,-0.128071 -0.110277,-0.0490999 -0.197763,-0.115922 -0.262456,-0.200465 -0.0646693,-0.0845436 -0.0970039,-0.189344 -0.0970039,-0.31488 0,-0.119461 0.033937,-0.225768 0.102313,-0.318922 0.0684002,-0.0926272 0.167557,-0.164017 0.296895,-0.214121 0.129386,-0.0501283 0.281541,-0.0749293 0.456511,-0.0749293 0.139957,0 0.260853,0.0166935 0.362641,0.0496021 0.102337,0.0334109 0.186642,0.0769622 0.253966,0.132137 0.067324,0.0546723 0.116615,0.112382 0.147921,0.172627 0.0307562,0.0602209 0.0466604,0.118959 0.0466604,0.176669 0,0.0521372 -0.0196112,0.0992042 -0.0583076,0.141225 -0.0387442,0.0420207 -0.0875092,0.0632821 -0.145291,0.0632821 -0.0530221,0 -0.0927707,-0.0126516 -0.120346,-0.0379549 -0.0275992,-0.024825 -0.0572792,-0.0663195 -0.0890877,-0.123527 -0.0418772,-0.0820085 -0.0911923,-0.146295 -0.1495,-0.192358 -0.0577814,-0.0460864 -0.151102,-0.0688546 -0.279412,-0.0688546 -0.119294,0 -0.215245,0.024801 -0.287879,0.0749293 -0.0731834,0.0501043 -0.109775,0.109847 -0.109775,0.180208 0,0.0435274 0.0121972,0.081004 0.0371179,0.112382 0.0249445,0.0318802 0.0594077,0.0592164 0.102863,0.0820085 0.0434796,0.0222659 0.0874853,0.04049 0.132017,0.0531417 0.0445319,0.0126756 0.117715,0.0314019 0.220555,0.056203 0.12831,0.0288429 0.244423,0.0602448 0.348339,0.0951624 0.104442,0.0344393 0.192453,0.076436 0.265613,0.126062 0.0731834,0.0490999 0.129913,0.11188 0.170737,0.187287 0.0408249,0.0759338 0.0614884,0.168585 0.0614884,0.27793z"/>
  <path id="1234" class="fil1" d="M7.8825 13.7995l0 -0.520392 -0.987737 0 0 -0.245021 1.03916 -1.40883 0.228519 0 0 1.40883 0.307514 0 0 0.245021 -0.307514 0 0 0.520392 -0.279939 0zm0 -0.765412l0 -0.98006 -0.712582 0.98006 0.712582 0z"/>
 </g>
</svg>
